<svg xmlns="http://www.w3.org/2000/svg" viewBox="0 0 220 181"><defs><style>.cls-1{fill:#161716;}</style></defs><g id="Camada_2" data-name="Camada 2"><g id="Logo"><path class="cls-1" d="M124.12,15.47l-8.84-13a5.81,5.81,0,0,0-9.68.22L.83,172.58a5.56,5.56,0,0,0,5,8.42l18.65-.45a5.78,5.78,0,0,0,4.78-2.72L111.59,43.58C112.62,39.78,128.54,19.43,124.12,15.47Z"/><path class="cls-1" d="M219.13,171.52,141.76,47.65a6,6,0,0,0-10-.2c-1.67,4-13.47,15.22-9.56,20l68.53,109.71a6,6,0,0,0,5,2.78l18.28.28A5.76,5.76,0,0,0,219.13,171.52Z"/><path class="cls-1" d="M106.14,91.86l-9.37,14.08a5.89,5.89,0,0,0,0,6.57l15.63,23.34c8.5,17.83-38.27,4-42.41,12.67L56.62,169.46a5.94,5.94,0,0,0,5,9.13c125.18-5.13,128.79,32.22,54.56-86.6A6,6,0,0,0,106.14,91.86Z"/></g></g></svg>