<?xml version="1.0" encoding="utf-8"?>
<!-- Generator: Adobe Illustrator 25.2.1, SVG Export Plug-In . SVG Version: 6.00 Build 0)  -->
<svg version="1.1" id="Camada_1" xmlns="http://www.w3.org/2000/svg" xmlns:xlink="http://www.w3.org/1999/xlink" x="0px" y="0px"
	 viewBox="0 0 853.3 818" style="enable-background:new 0 0 853.3 818;" xml:space="preserve">
<style type="text/css">
	.st0{fill:url(#SVGID_1_);}
	.st1{fill:#E6E6E6;}
	.st2{fill:#CBCBCB;}
	.st3{fill:#029FA6;}
	.st4{opacity:0.8;fill:url(#SVGID_2_);enable-background:new    ;}
	.st5{opacity:0.8;fill:url(#SVGID_3_);enable-background:new    ;}
	.st6{fill:#2F2E41;}
	.st7{fill:#6C63FF;}
</style>
<linearGradient id="SVGID_1_" gradientUnits="userSpaceOnUse" x1="150.8519" y1="398.9077" x2="650.8519" y2="398.9077">
	<stop  offset="0" style="stop-color:#083448"/>
	<stop  offset="0.12" style="stop-color:#0D3F54"/>
	<stop  offset="0.49" style="stop-color:#1B5E75"/>
	<stop  offset="0.6379" style="stop-color:#24708A"/>
	<stop  offset="0.9979" style="stop-color:#0A384C"/>
</linearGradient>
<path class="st0" d="M565.4,432.9c-63.1,100.2-92.8,217.5-207.3,217.5S150.9,553,150.9,432.9s103.4-167,207.3-217.5
	C695.4,51.1,706.7,208.6,565.4,432.9z"/>
<ellipse class="st1" cx="543.2" cy="205.3" rx="38.8" ry="40.7"/>
<ellipse class="st2" cx="539.4" cy="177.3" rx="4.5" ry="4.7"/>
<ellipse class="st2" cx="547" cy="224" rx="4.5" ry="4.7"/>
<ellipse class="st2" cx="564.1" cy="198" rx="3.2" ry="3.3"/>
<ellipse class="st2" cx="527.9" cy="208.7" rx="10.2" ry="10.7"/>
<ellipse class="st3" cx="409.6" cy="268.1" rx="6.4" ry="6.7"/>
<ellipse class="st3" cx="580" cy="285.4" rx="6.4" ry="6.7"/>
<ellipse class="st1" cx="504.4" cy="298.1" rx="3.8" ry="4"/>
<ellipse class="st1" cx="210.6" cy="424.2" rx="3.8" ry="4"/>
<ellipse class="st1" cx="436.3" cy="531.6" rx="3.8" ry="4"/>
<polygon class="st3" points="496.1,416.9 494.2,418.9 492.3,416.9 491.1,418.2 492.9,420.2 491,422.2 492.3,423.5 494.2,421.5 
	496.1,423.5 497.4,422.2 495.5,420.2 497.4,418.2 "/>
<polygon class="st1" points="243.7,482.3 241.8,484.3 239.9,482.3 238.6,483.6 240.5,485.6 238.6,487.6 239.9,488.9 241.8,486.9 
	243.7,488.9 244.9,487.6 243,485.6 244.9,483.6 "/>
<polygon class="st1" points="258.9,366.2 257,368.2 255.2,366.2 253.9,367.5 255.8,369.5 253.9,371.5 255.1,372.8 257,370.8 
	258.9,372.8 260.2,371.5 258.3,369.5 260.2,367.5 "/>
<polygon class="st1" points="591.5,242.7 589.6,244.7 587.7,242.7 586.4,244 588.3,246 586.4,248 587.7,249.4 589.6,247.4 
	591.5,249.4 592.7,248.1 590.8,246.1 592.8,244.1 "/>
<polygon class="st1" points="441.4,298.1 439.5,300.1 437.6,298.1 436.4,299.4 438.3,301.4 436.4,303.4 437.6,304.7 439.5,302.8 
	441.4,304.8 442.7,303.4 440.8,301.4 442.7,299.5 "/>
<linearGradient id="SVGID_2_" gradientUnits="userSpaceOnUse" x1="626.8639" y1="412.9548" x2="677.7313" y2="412.9548" gradientTransform="matrix(1 0 0 -1 -173.3513 779)">
	<stop  offset="0" style="stop-color:#FFFFFF"/>
	<stop  offset="1" style="stop-color:#FFFFFF;stop-opacity:0.3"/>
</linearGradient>
<path class="st4" d="M454.6,397.1l19.3-23.7l19.3-23.7l10.9-13.4c0.6-0.7-0.3-1.9-0.9-1.2l-19.3,23.7l-19.3,23.7l-10.9,13.4
	C453.1,396.6,454,397.8,454.6,397.1z"/>
<linearGradient id="SVGID_3_" gradientUnits="userSpaceOnUse" x1="592.5284" y1="327.5457" x2="643.3958" y2="327.5457" gradientTransform="matrix(1 0 0 -1 -173.3513 779)">
	<stop  offset="0" style="stop-color:#FFFFFF"/>
	<stop  offset="1" style="stop-color:#FFFFFF;stop-opacity:0.3"/>
</linearGradient>
<path class="st5" d="M420.3,482.5l19.3-23.7l19.3-23.7l10.9-13.4c0.6-0.7-0.3-1.9-0.9-1.2l-19.3,23.7l-19.3,23.7l-10.9,13.4
	C418.8,482.1,419.7,483.2,420.3,482.5L420.3,482.5z"/>
<path class="st6" d="M322.8,351.1h36.2l0,0v15c0,5.4-4.1,9.7-9.3,9.7l0,0h-17.7c-5.1,0-9.3-4.4-9.3-9.7l0,0V351.1L322.8,351.1z"/>
<path class="st1" d="M371.2,550c-8.3,8.8-16.5,8.8-24.8,0.3l-6.4-59l-4.5,59.1c-8.3,7-16,8-22.9,0.3c-6.6-51.1-10.2-98.5-4.5-134.8
	l-12.1-51.4l27.3-13.3c5.5,14.3-3.2,21.6,16.5,21.4c19.5-0.2,18-7.9,17.2-21.4l25.2,10.2c4.4,1.8,6.8,6.9,5.4,11.7L375,415.2
	C379.9,436.5,374.9,495.8,371.2,550z"/>
<path class="st6" d="M333,601.4c0,0-20.3,1.9-23,0.7l0,0c-0.2-0.1-0.3-0.2-0.5-0.2c-4-2.2-4.2-8.2-0.4-10.9l8-5.6l-7-39.4l27,0.3
	L333,601.4z"/>
<path class="st6" d="M348.3,601.7c0,0,20.3,1.9,23,0.7l0,0c0.2-0.1,0.3-0.2,0.5-0.2c4-2.2,4.2-8.2,0.4-10.9l-8-5.6l9.9-39.4h-28.3
	L348.3,601.7z"/>
<path class="st1" d="M300.6,461.2l4,16.9c1,4.3-0.7,8.7-4.2,11.1l0,0c-4.5,3-10.5,1.6-13.4-3.2c-0.8-1.3-1.3-2.8-1.4-4.4l-0.9-8.4
	l-3.2-80.2c0-13.6,7.8-25.9,19.8-31.2l6.2-2.7L300.6,461.2z"/>
<path class="st1" d="M401.7,392.4l0,0.5l-2.6,64.8l-0.5,12.5l-0.1,2.5l-0.9,8.4c-0.6,5.6-5.4,9.6-10.7,9c-5.3-0.6-9.2-5.6-8.6-11.2
	c0-0.5,0.1-0.9,0.2-1.4l4-16.9l-0.1-1.3l-0.5-7.8l-6.4-93l6.2,2.7C393.9,366.4,401.7,378.7,401.7,392.4z"/>
<path class="st6" d="M342.6,466.1c-23.1,0-37.3-8.4-37.5-8.5l0.6-1.2c0.3,0.2,28.9,17,70.8,2.4l0.4,1.3
	C365.9,464,354.3,466,342.6,466.1z"/>
<path class="st6" d="M319.7,527.6c-5.1-12-5.1-64.2-5.1-66.4l1.3,0c0,0.5,0,54.1,5,65.8L319.7,527.6z"/>
<path class="st6" d="M322.4,528.1c-4.5,0-7.5-1-9.5-2.2c-3.6-2.1-4.3-5-4.3-5.1l1.2-0.3l-0.6,0.2l0.6-0.2c0,0.1,0.7,2.5,3.8,4.3
	c3.4,2,10.3,3.5,23.8-0.8l0.4,1.3C331.3,527.4,326.3,528.1,322.4,528.1z"/>
<polygon class="st6" points="309.7,357.6 311,357.5 315.9,462 314.6,462.1 "/>
<path class="st6" d="M362.9,527.6l-1.2-0.5c5-11.7,5-65.3,5-65.8l1.3,0C368,463.4,367.9,515.6,362.9,527.6z"/>
<path class="st6" d="M360.2,528.1c-3.9,0-8.9-0.7-15.3-2.8l0.4-1.3c13.4,4.3,20.3,2.8,23.8,0.8c3.1-1.8,3.8-4.2,3.8-4.3l1.2,0.3
	c0,0.1-0.8,3-4.3,5.1C367.7,527.1,364.7,528.1,360.2,528.1z"/>
<polygon class="st6" points="366.7,462 371.6,357.5 372.8,357.6 368,462.1 "/>
<polygon class="st7" points="359,373.2 349.6,387.8 329.2,387.8 322.4,373.2 325.4,373.2 330.5,385.2 347.6,385.2 355.9,373.2 "/>
<polygon points="382,380.5 382.1,380.8 382,381.2 "/>
<path class="st3" d="M403,392.4l0,0.5l-12.1,3.7l-7.5-15.7l7.6-14.7C398.6,372.6,403,382.2,403,392.4z"/>
<path class="st3" d="M280.7,392.4l0,0.5l12.1,3.7l7.5-15.7l-7.6-14.7C285.1,372.6,280.7,382.2,280.7,392.4z"/>
<ellipse class="st1" cx="341" cy="326.8" rx="33.7" ry="35.4"/>
<ellipse class="st6" cx="341" cy="331.5" rx="24.8" ry="26"/>
<polygon class="st3" points="399.5,457.6 399,470.1 382.6,460.9 382.2,459.3 381.7,451.5 "/>
<polygon class="st3" points="283.5,457.6 284,470.1 301.2,460.9 301.6,459.3 302.2,451.5 "/>
<polygon class="st6" points="349.9,388.5 328.8,388.5 317.1,363.3 316.5,354.3 317.8,354.2 318.4,363 329.6,387.2 349.2,387.2 
	363.6,364.9 366.7,355 367.9,355.4 364.7,365.5 "/>
</svg>
